<?xml version="1.0" encoding="UTF-8" standalone="no"?>
<svg
   xmlns:dc="http://purl.org/dc/elements/1.1/"
   xmlns:cc="http://creativecommons.org/ns#"
   xmlns:rdf="http://www.w3.org/1999/02/22-rdf-syntax-ns#"
   xmlns:svg="http://www.w3.org/2000/svg"
   xmlns="http://www.w3.org/2000/svg"
   xmlns:sodipodi="http://sodipodi.sourceforge.net/DTD/sodipodi-0.dtd"
   xmlns:inkscape="http://www.inkscape.org/namespaces/inkscape"
   inkscape:version="1.0 (4035a4fb49, 2020-05-01)"
   sodipodi:docname="task_alt_black_24dp.svg"
   id="svg6"
   version="1.1"
   fill="#000000"
   width="24px"
   viewBox="0 0 24 24"
   height="24px"
   enable-background="new 0 0 24 24">
  <metadata
     id="metadata12">
    <rdf:RDF>
      <cc:Work
         rdf:about="">
        <dc:format>image/svg+xml</dc:format>
        <dc:type
           rdf:resource="http://purl.org/dc/dcmitype/StillImage" />
      </cc:Work>
    </rdf:RDF>
  </metadata>
  <defs
     id="defs10" />
  <sodipodi:namedview
     inkscape:current-layer="svg6"
     inkscape:window-maximized="1"
     inkscape:window-y="-8"
     inkscape:window-x="1912"
     inkscape:cy="9.8805754"
     inkscape:cx="10.149935"
     inkscape:zoom="25.573695"
     showgrid="false"
     id="namedview8"
     inkscape:window-height="1017"
     inkscape:window-width="1920"
     inkscape:pageshadow="2"
     inkscape:pageopacity="0"
     guidetolerance="10"
     gridtolerance="10"
     objecttolerance="10"
     borderopacity="1"
     bordercolor="#666666"
     pagecolor="#ffffff" />
  <rect
     id="rect2"
     width="24"
     height="24"
     fill="none" />
  <path
     style="fill:#2bd42b;fill-opacity:1"
     id="path4"
     d="M22,5.18L10.59,16.6l-4.24-4.24l1.41-1.41l2.83,2.83l10-10L22,5.18z M19.79,10.22C19.92,10.79,20,11.39,20,12 c0,4.42-3.58,8-8,8s-8-3.58-8-8c0-4.42,3.58-8,8-8c1.58,0,3.04,0.46,4.28,1.25l1.44-1.44C16.1,2.67,14.13,2,12,2C6.48,2,2,6.48,2,12 c0,5.52,4.48,10,10,10s10-4.48,10-10c0-1.19-0.22-2.33-0.6-3.39L19.79,10.22z" />
</svg>
