<?xml version="1.0" encoding="UTF-8" standalone="no"?>
<svg
   xmlns:dc="http://purl.org/dc/elements/1.1/"
   xmlns:cc="http://creativecommons.org/ns#"
   xmlns:rdf="http://www.w3.org/1999/02/22-rdf-syntax-ns#"
   xmlns:svg="http://www.w3.org/2000/svg"
   xmlns="http://www.w3.org/2000/svg"
   xmlns:sodipodi="http://sodipodi.sourceforge.net/DTD/sodipodi-0.dtd"
   xmlns:inkscape="http://www.inkscape.org/namespaces/inkscape"
   sodipodi:docname="cubari.svg"
   inkscape:version="1.0 (4035a4fb49, 2020-05-01)"
   width="128.0px"
   height="128.0px"
   viewBox="0 0 128.0 128.0"
   version="1.1"
   id="SVGRoot">
  <defs
     id="defs1534" />
  <sodipodi:namedview
     inkscape:window-maximized="1"
     inkscape:window-y="-8"
     inkscape:window-x="1912"
     inkscape:window-height="1017"
     inkscape:window-width="1920"
     showgrid="true"
     inkscape:document-rotation="0"
     inkscape:current-layer="layer1"
     inkscape:document-units="px"
     inkscape:cy="37.208413"
     inkscape:cx="21.98552"
     inkscape:zoom="1.979899"
     inkscape:pageshadow="2"
     inkscape:pageopacity="0.0"
     borderopacity="1.0"
     bordercolor="#666666"
     pagecolor="#ffffff"
     id="base">
    <inkscape:grid
       type="xygrid"
       id="grid2104" />
  </sodipodi:namedview>
  <metadata
     id="metadata1537">
    <rdf:RDF>
      <cc:Work
         rdf:about="">
        <dc:format>image/svg+xml</dc:format>
        <dc:type
           rdf:resource="http://purl.org/dc/dcmitype/StillImage" />
        <dc:title></dc:title>
      </cc:Work>
    </rdf:RDF>
  </metadata>
  <g
     id="layer1"
     inkscape:groupmode="layer"
     inkscape:label="Layer 1">
    <path
       style="display:inline;opacity:1;fill:#99ff55;fill-opacity:1;stroke:none;stroke-width:1.4292px;stroke-linecap:butt;stroke-linejoin:miter;stroke-opacity:1"
       d="M 90.226167,26.711762 94.56483,17.779268 H 36.120589 L 8.6849742,71.629629 h 9.4429518 l -2.296934,4.466248 -9.251537,-0.06374 c 0,0 -2.1693345,0.191213 -2.679759,-1.595078 C 3.3892343,72.650552 3.5806704,71.374501 3.5806704,71.374501 L 33.632245,13.313075 h 61.95344 c 0,0 2.488343,-0.446722 3.573009,1.40369 1.084666,1.850304 0.191436,3.828196 0.191436,3.828196 l -4.083438,8.103062 z"
       id="path908" />
    <path
       id="path911"
       d="m 37.178855,107.03987 -4.338664,8.9325 H 91.284432 L 118.72005,62.122006 h -9.44295 l 2.29693,-4.466249 9.25154,0.06374 c 0,0 2.16933,-0.191213 2.67976,1.595077 0.51045,1.786505 0.31902,3.062556 0.31902,3.062556 L 93.772777,120.43856 H 31.819336 c 0,0 -2.488343,0.44673 -3.573008,-1.40369 -1.084665,-1.85031 -0.191437,-3.8282 -0.191437,-3.8282 l 4.083438,-8.10306 z"
       style="display:inline;opacity:1;fill:#99ff55;fill-opacity:1;stroke:none;stroke-width:1.4292px;stroke-linecap:butt;stroke-linejoin:miter;stroke-opacity:1" />
    <path
       style="display:inline;opacity:1;fill:#99ff55;fill-opacity:1;stroke:none;stroke-width:1.4292px;stroke-linecap:butt;stroke-linejoin:miter;stroke-opacity:1"
       d="m 82.811836,30.314384 c 0,0 10.291463,3.809728 16.332008,14.862178 6.040546,11.052335 4.676026,21.349636 4.676026,21.349636 L 120,35 c 0,0 0.79332,-2.442446 -0.20823,-3.607812 -1.00156,-1.165367 -3.2559,-0.967555 -3.2559,-0.967555 z"
       id="path913"
       sodipodi:nodetypes="csccscc" />
    <path
       sodipodi:nodetypes="csccscc"
       id="path915"
       d="m 44.209005,103.50575 c 0,0 -10.291464,-3.809726 -16.332008,-14.862176 C 21.836452,77.591225 23.200969,67.293938 23.200969,67.293938 L 7.0208347,98.820136 c 0,0 -0.7933226,2.442434 0.2082365,3.607804 1.0015591,1.16536 3.2559018,0.96756 3.2559018,0.96756 z"
       style="display:inline;opacity:1;fill:#99ff55;fill-opacity:1;stroke:none;stroke-width:1.4292px;stroke-linecap:butt;stroke-linejoin:miter;stroke-opacity:1" />
    <path
       id="ellipse919"
       style="display:inline;opacity:1;fill:#99ff55;fill-opacity:1;stroke:none;stroke-width:2.87038;stroke-linecap:round;stroke-linejoin:bevel"
       d="M 64.555133,35.565336 A 31.903748,30.822192 0 0 0 32.652054,66.388137 31.903748,30.822192 0 0 0 64.555133,97.210924 31.903748,30.822192 0 0 0 96.458198,66.388137 31.903748,30.822192 0 0 0 64.555133,35.565336 Z m 0,13.507651 A 17.922389,17.314809 0 0 1 82.476009,66.388137 17.922389,17.314809 0 0 1 64.555133,83.703273 17.922389,17.314809 0 0 1 46.631456,66.388137 17.922389,17.314809 0 0 1 64.555133,49.072987 Z" />
  </g>
</svg>
